<svg width="1280" height="527" viewBox="0 0 1280 527" fill="none" xmlns="http://www.w3.org/2000/svg">
<rect width="1280" height="527" rx="32" fill="url(#paint0_linear_3637_64)"/>
<path d="M524.773 106V66.8H530.709V83.04H547.845V66.8H553.781V106H547.845V88.472H530.709V106H524.773ZM572.295 73.968C570.988 73.968 569.887 73.5573 568.991 72.736C568.132 71.8773 567.703 70.832 567.703 69.6C567.703 68.368 568.132 67.3413 568.991 66.52C569.887 65.6987 570.988 65.288 572.295 65.288C573.639 65.288 574.74 65.6987 575.599 66.52C576.495 67.3413 576.943 68.368 576.943 69.6C576.943 70.832 576.495 71.8773 575.599 72.736C574.74 73.5573 573.639 73.968 572.295 73.968ZM561.151 106V100.848H569.887V85.224C569.887 83.992 569.289 83.376 568.095 83.376H561.935V78.224H569.159C571.473 78.224 573.153 78.7653 574.199 79.848C575.281 80.8933 575.823 82.5733 575.823 84.888V100.848H584.559V106H561.151ZM603.633 91.72L602.737 66.8H610.129L609.177 91.72H603.633ZM606.489 106.336C605.107 106.336 603.931 105.888 602.961 104.992C601.99 104.059 601.505 102.939 601.505 101.632C601.505 100.325 601.99 99.224 602.961 98.328C603.931 97.432 605.107 96.984 606.489 96.984C607.907 96.984 609.083 97.432 610.017 98.328C610.987 99.224 611.473 100.325 611.473 101.632C611.473 102.939 610.987 104.059 610.017 104.992C609.083 105.888 607.907 106.336 606.489 106.336ZM662.109 106V100.736H670.621V72.064H662.221V66.8H684.957V72.064H676.557V100.736H685.069V106H662.109ZM702.351 83.32L705.879 66.8H713.775L707.671 83.32H702.351ZM725.345 106V78.224H730.273L730.777 81.472H731.057C731.543 80.3147 732.289 79.3813 733.297 78.672C734.305 77.9253 735.5 77.552 736.881 77.552C738.225 77.552 739.401 77.888 740.409 78.56C741.417 79.232 742.164 80.2027 742.649 81.472H742.873C743.359 80.352 744.124 79.4187 745.169 78.672C746.215 77.9253 747.503 77.552 749.033 77.552C751.087 77.552 752.636 78.224 753.681 79.568C754.764 80.912 755.305 82.7973 755.305 85.224V106H749.593V86.4C749.593 85.28 749.351 84.4027 748.865 83.768C748.417 83.096 747.689 82.76 746.681 82.76C745.673 82.76 744.833 83.152 744.161 83.936C743.527 84.72 743.209 85.8213 743.209 87.24V106H737.441V86.4C737.441 85.28 737.217 84.4027 736.769 83.768C736.321 83.096 735.593 82.76 734.585 82.76C733.577 82.76 732.737 83.152 732.065 83.936C731.393 84.72 731.057 85.8213 731.057 87.24V106H725.345Z" fill="white"/>
<rect x="443" y="155" width="394" height="86" rx="43" fill="white"/>
<path d="M468.968 214V180.4H474.056V194.32H488.744V180.4H493.832V214H488.744V198.976H474.056V214H468.968ZM508.021 214.576C506.133 214.576 504.549 214.256 503.269 213.616C501.989 212.944 501.029 212.064 500.389 210.976C499.749 209.856 499.429 208.64 499.429 207.328C499.429 204.992 500.277 203.168 501.973 201.856C503.701 200.544 506.133 199.888 509.269 199.888H515.413V199.36C515.413 195.776 513.749 193.984 510.421 193.984C509.045 193.984 507.877 194.288 506.917 194.896C505.989 195.472 505.365 196.416 505.045 197.728H499.957C500.213 195.232 501.285 193.264 503.173 191.824C505.093 190.352 507.509 189.616 510.421 189.616C513.941 189.616 516.501 190.48 518.101 192.208C519.701 193.936 520.501 196.32 520.501 199.36V214H516.181L515.749 210.496H515.413C514.709 211.616 513.829 212.576 512.773 213.376C511.717 214.176 510.133 214.576 508.021 214.576ZM508.981 210.304C511.061 210.304 512.613 209.68 513.637 208.432C514.693 207.152 515.269 205.536 515.365 203.584H509.797C507.973 203.584 506.677 203.888 505.909 204.496C505.173 205.072 504.805 205.888 504.805 206.944C504.805 208 505.173 208.832 505.909 209.44C506.677 210.016 507.701 210.304 508.981 210.304ZM539.155 214.576C536.019 214.576 533.523 213.84 531.667 212.368C529.811 210.896 528.755 208.944 528.499 206.512H533.731C533.923 207.632 534.483 208.544 535.411 209.248C536.371 209.952 537.635 210.304 539.203 210.304C540.707 210.304 541.859 210 542.659 209.392C543.491 208.752 543.907 208.016 543.907 207.184C543.907 205.968 543.411 205.136 542.419 204.688C541.459 204.24 540.035 203.904 538.147 203.68C536.515 203.488 535.027 203.12 533.683 202.576C532.371 202 531.331 201.232 530.562 200.272C529.795 199.28 529.411 198.048 529.411 196.576C529.411 194.496 530.227 192.816 531.859 191.536C533.491 190.256 535.763 189.616 538.674 189.616C541.587 189.616 543.843 190.272 545.443 191.584C547.043 192.896 547.971 194.688 548.227 196.96H543.331C543.203 196 542.707 195.248 541.843 194.704C540.979 194.128 539.907 193.84 538.627 193.84C537.315 193.84 536.275 194.096 535.507 194.608C534.739 195.088 534.355 195.728 534.355 196.528C534.355 198.256 536.211 199.312 539.923 199.696C541.683 199.888 543.251 200.224 544.627 200.704C546.003 201.152 547.091 201.872 547.891 202.864C548.691 203.824 549.091 205.184 549.091 206.944C549.123 208.384 548.707 209.68 547.843 210.832C547.011 211.984 545.843 212.896 544.339 213.568C542.867 214.24 541.139 214.576 539.155 214.576ZM568.032 214.576C565.728 214.576 563.696 214.064 561.936 213.04C560.176 211.984 558.8 210.528 557.808 208.672C556.816 206.816 556.32 204.656 556.32 202.192C556.32 199.696 556.8 197.504 557.76 195.616C558.752 193.728 560.128 192.256 561.888 191.2C563.68 190.144 565.744 189.616 568.08 189.616C570.384 189.616 572.368 190.144 574.032 191.2C575.696 192.224 576.976 193.6 577.872 195.328C578.8 197.056 579.264 198.96 579.264 201.04C579.264 201.36 579.264 201.712 579.264 202.096C579.264 202.448 579.248 202.848 579.216 203.296H561.312C561.472 205.504 562.192 207.184 563.472 208.336C564.752 209.456 566.256 210.016 567.984 210.016C569.488 210.016 570.672 209.712 571.536 209.104C572.432 208.464 573.088 207.6 573.504 206.512H578.64C578.064 208.784 576.864 210.704 575.04 212.272C573.216 213.808 570.88 214.576 568.032 214.576ZM568.032 194.032C566.464 194.032 565.072 194.512 563.856 195.472C562.64 196.4 561.856 197.712 561.504 199.408H574.176C574.048 197.808 573.424 196.512 572.304 195.52C571.184 194.528 569.76 194.032 568.032 194.032ZM596.813 214.576C594.509 214.576 592.477 214.064 590.717 213.04C588.957 211.984 587.581 210.528 586.589 208.672C585.597 206.816 585.101 204.656 585.101 202.192C585.101 199.696 585.581 197.504 586.541 195.616C587.533 193.728 588.909 192.256 590.669 191.2C592.461 190.144 594.525 189.616 596.861 189.616C599.165 189.616 601.149 190.144 602.813 191.2C604.477 192.224 605.757 193.6 606.653 195.328C607.581 197.056 608.045 198.96 608.045 201.04C608.045 201.36 608.045 201.712 608.045 202.096C608.045 202.448 608.029 202.848 607.997 203.296H590.093C590.253 205.504 590.973 207.184 592.253 208.336C593.533 209.456 595.037 210.016 596.765 210.016C598.269 210.016 599.453 209.712 600.317 209.104C601.213 208.464 601.869 207.6 602.285 206.512H607.421C606.845 208.784 605.645 210.704 603.821 212.272C601.997 213.808 599.661 214.576 596.813 214.576ZM596.813 194.032C595.245 194.032 593.853 194.512 592.637 195.472C591.421 196.4 590.637 197.712 590.285 199.408H602.957C602.829 197.808 602.205 196.512 601.085 195.52C599.965 194.528 598.541 194.032 596.813 194.032ZM626.602 214.576C624.842 214.576 623.354 214.224 622.138 213.52C620.954 212.784 620.042 211.776 619.402 210.496H619.114L618.682 214H614.314V179.44H619.402V193.264C619.978 192.304 620.89 191.456 622.138 190.72C623.386 189.984 624.874 189.616 626.602 189.616C628.586 189.616 630.362 190.096 631.93 191.056C633.498 191.984 634.73 193.376 635.626 195.232C636.554 197.088 637.018 199.376 637.018 202.096C637.018 204.816 636.554 207.104 635.626 208.96C634.73 210.816 633.498 212.224 631.93 213.184C630.362 214.112 628.586 214.576 626.602 214.576ZM625.546 209.728C627.37 209.728 628.874 209.104 630.058 207.856C631.274 206.576 631.882 204.672 631.882 202.144C631.882 199.584 631.274 197.664 630.058 196.384C628.874 195.104 627.37 194.464 625.546 194.464C623.722 194.464 622.202 195.104 620.986 196.384C619.802 197.632 619.21 199.536 619.21 202.096C619.21 204.624 619.802 206.528 620.986 207.808C622.202 209.088 623.722 209.728 625.546 209.728ZM669.813 214L679.845 180.4H685.893L695.925 214H690.405L688.149 205.936H677.589L675.333 214H669.813ZM682.725 187.6L678.741 201.856H686.997L683.013 187.6H682.725ZM700.754 214V179.44H705.842V193.744C706.482 192.56 707.506 191.584 708.914 190.816C710.322 190.016 711.906 189.616 713.666 189.616C716.61 189.616 718.85 190.512 720.386 192.304C721.922 194.064 722.69 196.608 722.69 199.936V214H717.602V200.656C717.602 198.672 717.122 197.136 716.162 196.048C715.202 194.96 713.874 194.416 712.178 194.416C710.418 194.416 708.914 195.008 707.666 196.192C706.45 197.376 705.842 199.088 705.842 201.328V214H700.754ZM727.231 214V190.192H731.455L731.887 192.976H732.127C732.543 191.984 733.183 191.184 734.047 190.576C734.911 189.936 735.935 189.616 737.119 189.616C738.271 189.616 739.279 189.904 740.143 190.48C741.007 191.056 741.647 191.888 742.063 192.976H742.255C742.671 192.016 743.327 191.216 744.223 190.576C745.119 189.936 746.223 189.616 747.535 189.616C749.295 189.616 750.623 190.192 751.519 191.344C752.447 192.496 752.911 194.112 752.911 196.192V214H748.015V197.2C748.015 196.24 747.807 195.488 747.391 194.944C747.007 194.368 746.383 194.08 745.519 194.08C744.655 194.08 743.935 194.416 743.359 195.088C742.815 195.76 742.543 196.704 742.543 197.92V214H737.599V197.2C737.599 196.24 737.407 195.488 737.023 194.944C736.639 194.368 736.015 194.08 735.151 194.08C734.287 194.08 733.567 194.416 732.991 195.088C732.415 195.76 732.127 196.704 732.127 197.92V214H727.231ZM769.501 214.576C767.197 214.576 765.165 214.064 763.405 213.04C761.645 211.984 760.269 210.528 759.277 208.672C758.285 206.816 757.789 204.656 757.789 202.192C757.789 199.696 758.269 197.504 759.229 195.616C760.221 193.728 761.597 192.256 763.357 191.2C765.149 190.144 767.213 189.616 769.549 189.616C771.853 189.616 773.837 190.144 775.501 191.2C777.165 192.224 778.445 193.6 779.341 195.328C780.269 197.056 780.733 198.96 780.733 201.04C780.733 201.36 780.733 201.712 780.733 202.096C780.733 202.448 780.717 202.848 780.685 203.296H762.781C762.941 205.504 763.661 207.184 764.941 208.336C766.221 209.456 767.725 210.016 769.453 210.016C770.957 210.016 772.141 209.712 773.005 209.104C773.901 208.464 774.557 207.6 774.973 206.512H780.109C779.533 208.784 778.333 210.704 776.509 212.272C774.685 213.808 772.349 214.576 769.501 214.576ZM769.501 194.032C767.933 194.032 766.541 194.512 765.325 195.472C764.109 196.4 763.325 197.712 762.973 199.408H775.645C775.517 197.808 774.893 196.512 773.773 195.52C772.653 194.528 771.229 194.032 769.501 194.032ZM796.698 214.576C794.714 214.576 792.938 214.112 791.37 213.184C789.802 212.224 788.554 210.816 787.626 208.96C786.73 207.104 786.282 204.816 786.282 202.096C786.282 199.376 786.746 197.088 787.674 195.232C788.602 193.376 789.85 191.984 791.418 191.056C793.018 190.096 794.794 189.616 796.746 189.616C798.57 189.616 800.074 189.968 801.258 190.672C802.442 191.344 803.322 192.208 803.898 193.264V179.44H808.986V214H804.618L804.186 210.496H803.898C803.258 211.744 802.346 212.736 801.162 213.472C800.01 214.208 798.522 214.576 796.698 214.576ZM797.754 209.728C799.578 209.728 801.082 209.088 802.266 207.808C803.482 206.528 804.09 204.624 804.09 202.096C804.09 199.536 803.482 197.632 802.266 196.384C801.082 195.104 799.578 194.464 797.754 194.464C795.93 194.464 794.41 195.104 793.194 196.384C792.01 197.664 791.418 199.584 791.418 202.144C791.418 204.672 792.01 206.576 793.194 207.856C794.41 209.104 795.93 209.728 797.754 209.728Z" fill="black"/>
<rect x="170" y="273" width="940" height="86" rx="43" fill="black"/>
<path d="M195.564 332V298.4H200.94L207.9 313.568L214.86 298.4H220.236V332H215.388V308.096L209.916 320.096H205.884L200.412 308.144V332H195.564ZM236.681 332.576C234.409 332.576 232.377 332.064 230.585 331.04C228.793 330.016 227.385 328.576 226.361 326.72C225.337 324.832 224.825 322.624 224.825 320.096C224.825 317.568 225.337 315.376 226.361 313.52C227.385 311.632 228.793 310.176 230.585 309.152C232.377 308.128 234.425 307.616 236.729 307.616C239.033 307.616 241.065 308.128 242.825 309.152C244.617 310.176 246.009 311.632 247.001 313.52C248.025 315.376 248.537 317.568 248.537 320.096C248.537 322.624 248.025 324.832 247.001 326.72C245.977 328.576 244.569 330.016 242.777 331.04C241.017 332.064 238.985 332.576 236.681 332.576ZM236.681 327.728C237.897 327.728 239.017 327.456 240.041 326.912C241.065 326.368 241.881 325.536 242.489 324.416C243.129 323.264 243.449 321.824 243.449 320.096C243.449 318.336 243.129 316.896 242.489 315.776C241.881 314.656 241.065 313.824 240.041 313.28C239.049 312.736 237.945 312.464 236.729 312.464C235.513 312.464 234.393 312.736 233.369 313.28C232.345 313.824 231.513 314.656 230.873 315.776C230.265 316.896 229.961 318.336 229.961 320.096C229.961 322.72 230.617 324.656 231.929 325.904C233.273 327.12 234.857 327.728 236.681 327.728ZM266.759 332.576C264.999 332.576 263.511 332.224 262.295 331.52C261.111 330.784 260.199 329.776 259.559 328.496H259.271L258.839 332H254.471V297.44H259.559V311.264C260.135 310.304 261.047 309.456 262.295 308.72C263.543 307.984 265.031 307.616 266.759 307.616C268.743 307.616 270.519 308.096 272.087 309.056C273.655 309.984 274.887 311.376 275.783 313.232C276.711 315.088 277.175 317.376 277.175 320.096C277.175 322.816 276.711 325.104 275.783 326.96C274.887 328.816 273.655 330.224 272.087 331.184C270.519 332.112 268.743 332.576 266.759 332.576ZM265.703 327.728C267.527 327.728 269.031 327.104 270.215 325.856C271.431 324.576 272.039 322.672 272.039 320.144C272.039 317.584 271.431 315.664 270.215 314.384C269.031 313.104 267.527 312.464 265.703 312.464C263.879 312.464 262.359 313.104 261.143 314.384C259.959 315.632 259.367 317.536 259.367 320.096C259.367 322.624 259.959 324.528 261.143 325.808C262.359 327.088 263.879 327.728 265.703 327.728ZM293.764 304.544C292.644 304.544 291.7 304.192 290.932 303.488C290.196 302.752 289.828 301.856 289.828 300.8C289.828 299.744 290.196 298.864 290.932 298.16C291.7 297.456 292.644 297.104 293.764 297.104C294.916 297.104 295.86 297.456 296.596 298.16C297.364 298.864 297.748 299.744 297.748 300.8C297.748 301.856 297.364 302.752 296.596 303.488C295.86 304.192 294.916 304.544 293.764 304.544ZM284.212 332V327.584H291.7V314.192C291.7 313.136 291.188 312.608 290.164 312.608H284.884V308.192H291.076C293.06 308.192 294.5 308.656 295.396 309.584C296.324 310.48 296.788 311.92 296.788 313.904V327.584H304.276V332H284.212ZM311.889 332V327.584H319.857V303.44C319.857 302.384 319.345 301.856 318.321 301.856H312.561V297.44H319.233C321.089 297.44 322.497 297.936 323.457 298.928C324.449 299.888 324.945 301.296 324.945 303.152V327.584H332.961V332H311.889ZM352.094 332.576C349.79 332.576 347.758 332.064 345.998 331.04C344.238 329.984 342.862 328.528 341.87 326.672C340.878 324.816 340.382 322.656 340.382 320.192C340.382 317.696 340.862 315.504 341.822 313.616C342.814 311.728 344.19 310.256 345.95 309.2C347.742 308.144 349.806 307.616 352.142 307.616C354.446 307.616 356.43 308.144 358.094 309.2C359.758 310.224 361.038 311.6 361.934 313.328C362.862 315.056 363.326 316.96 363.326 319.04C363.326 319.36 363.326 319.712 363.326 320.096C363.326 320.448 363.31 320.848 363.278 321.296H345.374C345.534 323.504 346.254 325.184 347.534 326.336C348.814 327.456 350.318 328.016 352.046 328.016C353.55 328.016 354.734 327.712 355.598 327.104C356.494 326.464 357.15 325.6 357.566 324.512H362.702C362.126 326.784 360.926 328.704 359.102 330.272C357.278 331.808 354.942 332.576 352.094 332.576ZM352.094 312.032C350.526 312.032 349.134 312.512 347.918 313.472C346.702 314.4 345.918 315.712 345.566 317.408H358.238C358.11 315.808 357.486 314.512 356.366 313.52C355.246 312.528 353.822 312.032 352.094 312.032ZM396.313 332L406.345 298.4H412.393L422.425 332H416.905L414.649 323.936H404.089L401.833 332H396.313ZM409.225 305.6L405.241 319.856H413.497L409.513 305.6H409.225ZM427.062 342.56V308.192H431.478L431.862 311.84H432.15C432.79 310.656 433.75 309.664 435.03 308.864C436.342 308.032 437.894 307.616 439.686 307.616C441.542 307.616 443.238 308.096 444.774 309.056C446.31 309.984 447.526 311.376 448.422 313.232C449.35 315.056 449.814 317.344 449.814 320.096C449.814 322.816 449.334 325.104 448.374 326.96C447.446 328.816 446.182 330.224 444.582 331.184C442.982 332.112 441.19 332.576 439.206 332.576C437.446 332.576 435.974 332.224 434.79 331.52C433.606 330.816 432.726 330.016 432.15 329.12V342.56H427.062ZM438.342 327.728C440.134 327.728 441.622 327.088 442.806 325.808C444.022 324.528 444.63 322.608 444.63 320.048C444.63 317.488 444.022 315.584 442.806 314.336C441.622 313.088 440.134 312.464 438.342 312.464C436.518 312.464 434.998 313.104 433.782 314.384C432.598 315.632 432.006 317.536 432.006 320.096C432.006 322.624 432.598 324.528 433.782 325.808C434.998 327.088 436.518 327.728 438.342 327.728ZM455.843 342.56V308.192H460.259L460.643 311.84H460.931C461.571 310.656 462.531 309.664 463.811 308.864C465.123 308.032 466.675 307.616 468.467 307.616C470.323 307.616 472.019 308.096 473.555 309.056C475.091 309.984 476.307 311.376 477.203 313.232C478.131 315.056 478.595 317.344 478.595 320.096C478.595 322.816 478.115 325.104 477.155 326.96C476.227 328.816 474.963 330.224 473.363 331.184C471.763 332.112 469.971 332.576 467.987 332.576C466.227 332.576 464.755 332.224 463.571 331.52C462.387 330.816 461.507 330.016 460.931 329.12V342.56H455.843ZM467.123 327.728C468.915 327.728 470.403 327.088 471.587 325.808C472.803 324.528 473.411 322.608 473.411 320.048C473.411 317.488 472.803 315.584 471.587 314.336C470.403 313.088 468.915 312.464 467.123 312.464C465.299 312.464 463.779 313.104 462.563 314.384C461.379 315.632 460.787 317.536 460.787 320.096C460.787 322.624 461.379 324.528 462.563 325.808C463.779 327.088 465.299 327.728 467.123 327.728ZM512.83 332V298.4H520.894C526.302 298.4 530.318 299.904 532.942 302.912C535.566 305.888 536.878 309.984 536.878 315.2C536.878 320.416 535.566 324.528 532.942 327.536C530.318 330.512 526.302 332 520.894 332H512.83ZM517.918 327.296H520.702C524.606 327.296 527.422 326.208 529.15 324.032C530.878 321.824 531.742 318.88 531.742 315.2C531.742 311.52 530.878 308.592 529.15 306.416C527.422 304.208 524.606 303.104 520.702 303.104H517.918V327.296ZM553.563 332.576C551.259 332.576 549.227 332.064 547.467 331.04C545.707 329.984 544.331 328.528 543.339 326.672C542.347 324.816 541.851 322.656 541.851 320.192C541.851 317.696 542.331 315.504 543.291 313.616C544.283 311.728 545.659 310.256 547.419 309.2C549.211 308.144 551.275 307.616 553.611 307.616C555.915 307.616 557.899 308.144 559.563 309.2C561.227 310.224 562.507 311.6 563.403 313.328C564.331 315.056 564.795 316.96 564.795 319.04C564.795 319.36 564.795 319.712 564.795 320.096C564.795 320.448 564.779 320.848 564.747 321.296H546.843C547.003 323.504 547.723 325.184 549.003 326.336C550.283 327.456 551.787 328.016 553.515 328.016C555.019 328.016 556.203 327.712 557.067 327.104C557.963 326.464 558.619 325.6 559.035 324.512H564.171C563.595 326.784 562.395 328.704 560.571 330.272C558.747 331.808 556.411 332.576 553.563 332.576ZM553.563 312.032C551.995 312.032 550.603 312.512 549.387 313.472C548.171 314.4 547.387 315.712 547.035 317.408H559.707C559.579 315.808 558.955 314.512 557.835 313.52C556.715 312.528 555.291 312.032 553.563 312.032ZM578.984 332L568.664 308.192H574.424L582.056 326.624L589.736 308.192H595.448L585.08 332H578.984ZM611.126 332.576C608.822 332.576 606.79 332.064 605.03 331.04C603.27 329.984 601.894 328.528 600.902 326.672C599.91 324.816 599.414 322.656 599.414 320.192C599.414 317.696 599.894 315.504 600.854 313.616C601.846 311.728 603.222 310.256 604.982 309.2C606.774 308.144 608.838 307.616 611.174 307.616C613.478 307.616 615.462 308.144 617.126 309.2C618.79 310.224 620.07 311.6 620.966 313.328C621.894 315.056 622.358 316.96 622.358 319.04C622.358 319.36 622.358 319.712 622.358 320.096C622.358 320.448 622.342 320.848 622.31 321.296H604.406C604.566 323.504 605.286 325.184 606.566 326.336C607.846 327.456 609.35 328.016 611.078 328.016C612.582 328.016 613.766 327.712 614.63 327.104C615.526 326.464 616.182 325.6 616.598 324.512H621.734C621.158 326.784 619.958 328.704 618.134 330.272C616.31 331.808 613.974 332.576 611.126 332.576ZM611.126 312.032C609.558 312.032 608.166 312.512 606.95 313.472C605.734 314.4 604.95 315.712 604.598 317.408H617.27C617.142 315.808 616.518 314.512 615.398 313.52C614.278 312.528 612.854 312.032 611.126 312.032ZM628.483 332V327.584H636.451V303.44C636.451 302.384 635.939 301.856 634.915 301.856H629.155V297.44H635.827C637.683 297.44 639.091 297.936 640.051 298.928C641.043 299.888 641.539 301.296 641.539 303.152V327.584H649.555V332H628.483ZM668.4 332.576C666.128 332.576 664.096 332.064 662.304 331.04C660.512 330.016 659.104 328.576 658.08 326.72C657.056 324.832 656.544 322.624 656.544 320.096C656.544 317.568 657.056 315.376 658.08 313.52C659.104 311.632 660.512 310.176 662.304 309.152C664.096 308.128 666.144 307.616 668.448 307.616C670.752 307.616 672.784 308.128 674.544 309.152C676.336 310.176 677.728 311.632 678.72 313.52C679.744 315.376 680.256 317.568 680.256 320.096C680.256 322.624 679.744 324.832 678.72 326.72C677.696 328.576 676.288 330.016 674.496 331.04C672.736 332.064 670.704 332.576 668.4 332.576ZM668.4 327.728C669.616 327.728 670.736 327.456 671.76 326.912C672.784 326.368 673.6 325.536 674.208 324.416C674.848 323.264 675.168 321.824 675.168 320.096C675.168 318.336 674.848 316.896 674.208 315.776C673.6 314.656 672.784 313.824 671.76 313.28C670.768 312.736 669.664 312.464 668.448 312.464C667.232 312.464 666.112 312.736 665.088 313.28C664.064 313.824 663.232 314.656 662.592 315.776C661.984 316.896 661.68 318.336 661.68 320.096C661.68 322.72 662.336 324.656 663.648 325.904C664.992 327.12 666.576 327.728 668.4 327.728ZM686.093 342.56V308.192H690.509L690.893 311.84H691.181C691.821 310.656 692.781 309.664 694.061 308.864C695.373 308.032 696.925 307.616 698.717 307.616C700.573 307.616 702.269 308.096 703.805 309.056C705.341 309.984 706.557 311.376 707.453 313.232C708.381 315.056 708.845 317.344 708.845 320.096C708.845 322.816 708.365 325.104 707.405 326.96C706.477 328.816 705.213 330.224 703.613 331.184C702.013 332.112 700.221 332.576 698.237 332.576C696.477 332.576 695.005 332.224 693.821 331.52C692.637 330.816 691.757 330.016 691.181 329.12V342.56H686.093ZM697.373 327.728C699.165 327.728 700.653 327.088 701.837 325.808C703.053 324.528 703.661 322.608 703.661 320.048C703.661 317.488 703.053 315.584 701.837 314.336C700.653 313.088 699.165 312.464 697.373 312.464C695.549 312.464 694.029 313.104 692.813 314.384C691.629 315.632 691.037 317.536 691.037 320.096C691.037 322.624 691.629 324.528 692.813 325.808C694.029 327.088 695.549 327.728 697.373 327.728ZM726.251 332.576C723.947 332.576 721.915 332.064 720.155 331.04C718.395 329.984 717.019 328.528 716.027 326.672C715.035 324.816 714.539 322.656 714.539 320.192C714.539 317.696 715.019 315.504 715.979 313.616C716.971 311.728 718.347 310.256 720.107 309.2C721.899 308.144 723.963 307.616 726.299 307.616C728.603 307.616 730.587 308.144 732.251 309.2C733.915 310.224 735.195 311.6 736.091 313.328C737.019 315.056 737.483 316.96 737.483 319.04C737.483 319.36 737.483 319.712 737.483 320.096C737.483 320.448 737.467 320.848 737.435 321.296H719.531C719.691 323.504 720.411 325.184 721.691 326.336C722.971 327.456 724.475 328.016 726.203 328.016C727.707 328.016 728.891 327.712 729.755 327.104C730.651 326.464 731.307 325.6 731.723 324.512H736.859C736.283 326.784 735.083 328.704 733.259 330.272C731.435 331.808 729.099 332.576 726.251 332.576ZM726.251 312.032C724.683 312.032 723.291 312.512 722.075 313.472C720.859 314.4 720.075 315.712 719.723 317.408H732.395C732.267 315.808 731.643 314.512 730.523 313.52C729.403 312.528 727.979 312.032 726.251 312.032ZM744.04 332V327.584H749.848V314.192C749.848 313.136 749.336 312.608 748.312 312.608H744.52V308.192H750.232C751.544 308.192 752.616 308.576 753.448 309.344C754.28 310.08 754.696 311.12 754.696 312.464V313.04H754.936C755.288 311.248 756.04 309.904 757.192 309.008C758.376 308.08 760.088 307.616 762.328 307.616H766.024V312.992H760.84C758.952 312.992 757.496 313.648 756.472 314.96C755.448 316.272 754.936 317.84 754.936 319.664V327.584H762.328V332H744.04ZM809.714 332.528C806.546 332.528 803.986 331.616 802.034 329.792C800.114 327.936 799.154 325.408 799.154 322.208C799.154 320.224 799.666 318.416 800.69 316.784C801.714 315.12 803.186 313.728 805.106 312.608C803.538 310.304 802.754 308.112 802.754 306.032C802.754 304.496 803.09 303.12 803.762 301.904C804.466 300.656 805.49 299.664 806.834 298.928C808.178 298.192 809.794 297.824 811.682 297.824C814.498 297.824 816.658 298.592 818.162 300.128C819.698 301.632 820.466 303.52 820.466 305.792H815.57C815.538 304.672 815.138 303.792 814.37 303.152C813.634 302.512 812.722 302.192 811.634 302.192C810.418 302.192 809.458 302.544 808.754 303.248C808.05 303.952 807.698 304.864 807.698 305.984C807.698 306.944 807.954 307.92 808.466 308.912C809.01 309.872 809.762 310.96 810.722 312.176L817.49 320.768L820.322 314.576H825.602L821.09 324.176C820.962 324.432 820.85 324.672 820.754 324.896L826.322 332H820.466L818.066 328.976C817.042 330.096 815.858 330.976 814.514 331.616C813.17 332.224 811.57 332.528 809.714 332.528ZM804.242 322.064C804.242 323.76 804.754 325.168 805.778 326.288C806.802 327.408 808.146 327.968 809.81 327.968C810.93 327.968 811.906 327.728 812.738 327.248C813.57 326.768 814.338 326.08 815.042 325.184L807.746 316.112C805.41 317.584 804.242 319.568 804.242 322.064ZM858.205 332V298.4H866.269C871.677 298.4 875.693 299.904 878.317 302.912C880.941 305.888 882.253 309.984 882.253 315.2C882.253 320.416 880.941 324.528 878.317 327.536C875.693 330.512 871.677 332 866.269 332H858.205ZM863.293 327.296H866.077C869.981 327.296 872.797 326.208 874.525 324.032C876.253 321.824 877.117 318.88 877.117 315.2C877.117 311.52 876.253 308.592 874.525 306.416C872.797 304.208 869.981 303.104 866.077 303.104H863.293V327.296ZM898.938 332.576C896.634 332.576 894.602 332.064 892.842 331.04C891.082 329.984 889.706 328.528 888.714 326.672C887.722 324.816 887.226 322.656 887.226 320.192C887.226 317.696 887.706 315.504 888.666 313.616C889.658 311.728 891.034 310.256 892.794 309.2C894.586 308.144 896.65 307.616 898.986 307.616C901.29 307.616 903.274 308.144 904.938 309.2C906.602 310.224 907.882 311.6 908.778 313.328C909.706 315.056 910.17 316.96 910.17 319.04C910.17 319.36 910.17 319.712 910.17 320.096C910.17 320.448 910.154 320.848 910.122 321.296H892.218C892.378 323.504 893.098 325.184 894.378 326.336C895.658 327.456 897.162 328.016 898.89 328.016C900.394 328.016 901.578 327.712 902.442 327.104C903.338 326.464 903.994 325.6 904.41 324.512H909.546C908.97 326.784 907.77 328.704 905.946 330.272C904.122 331.808 901.786 332.576 898.938 332.576ZM898.938 312.032C897.37 312.032 895.978 312.512 894.762 313.472C893.546 314.4 892.762 315.712 892.41 317.408H905.082C904.954 315.808 904.33 314.512 903.21 313.52C902.09 312.528 900.666 312.032 898.938 312.032ZM927.623 332.576C924.487 332.576 921.991 331.84 920.135 330.368C918.279 328.896 917.223 326.944 916.967 324.512H922.199C922.391 325.632 922.951 326.544 923.879 327.248C924.839 327.952 926.103 328.304 927.671 328.304C929.175 328.304 930.327 328 931.127 327.392C931.959 326.752 932.375 326.016 932.375 325.184C932.375 323.968 931.879 323.136 930.887 322.688C929.927 322.24 928.503 321.904 926.615 321.68C924.983 321.488 923.495 321.12 922.151 320.576C920.839 320 919.799 319.232 919.031 318.272C918.263 317.28 917.879 316.048 917.879 314.576C917.879 312.496 918.695 310.816 920.327 309.536C921.959 308.256 924.231 307.616 927.143 307.616C930.055 307.616 932.311 308.272 933.911 309.584C935.511 310.896 936.439 312.688 936.695 314.96H931.799C931.671 314 931.175 313.248 930.311 312.704C929.447 312.128 928.375 311.84 927.095 311.84C925.783 311.84 924.743 312.096 923.975 312.608C923.207 313.088 922.823 313.728 922.823 314.528C922.823 316.256 924.679 317.312 928.391 317.696C930.151 317.888 931.719 318.224 933.095 318.704C934.471 319.152 935.559 319.872 936.359 320.864C937.159 321.824 937.559 323.184 937.559 324.944C937.591 326.384 937.175 327.68 936.311 328.832C935.479 329.984 934.311 330.896 932.807 331.568C931.335 332.24 929.607 332.576 927.623 332.576ZM955.733 304.544C954.613 304.544 953.669 304.192 952.901 303.488C952.165 302.752 951.797 301.856 951.797 300.8C951.797 299.744 952.165 298.864 952.901 298.16C953.669 297.456 954.613 297.104 955.733 297.104C956.885 297.104 957.829 297.456 958.565 298.16C959.333 298.864 959.717 299.744 959.717 300.8C959.717 301.856 959.333 302.752 958.565 303.488C957.829 304.192 956.885 304.544 955.733 304.544ZM946.181 332V327.584H953.669V314.192C953.669 313.136 953.157 312.608 952.133 312.608H946.853V308.192H953.045C955.029 308.192 956.469 308.656 957.365 309.584C958.293 310.48 958.757 311.92 958.757 313.904V327.584H966.245V332H946.181ZM984.466 325.136C982.994 325.136 981.634 324.896 980.386 324.416L979.186 325.856C978.802 326.336 978.69 326.8 978.85 327.248C979.042 327.664 979.474 327.872 980.146 327.872H986.434C989.218 327.872 991.458 328.464 993.154 329.648C994.882 330.8 995.746 332.576 995.746 334.976C995.746 336.48 995.362 337.84 994.594 339.056C993.858 340.304 992.658 341.296 990.994 342.032C989.362 342.768 987.202 343.136 984.514 343.136C981.122 343.136 978.386 342.496 976.306 341.216C974.258 339.968 973.234 338.08 973.234 335.552C973.234 334.656 973.442 333.824 973.858 333.056C974.306 332.32 974.882 331.648 975.586 331.04C974.722 330.4 974.194 329.504 974.002 328.352C973.842 327.168 974.194 326.032 975.058 324.944L977.17 322.256C975.666 320.656 974.914 318.688 974.914 316.352C974.914 314.784 975.282 313.344 976.018 312.032C976.786 310.688 977.874 309.616 979.282 308.816C980.722 308.016 982.45 307.616 984.466 307.616C985.778 307.616 986.994 307.808 988.114 308.192H997.09V311.552L992.914 311.792V312.224C993.586 313.472 993.922 314.848 993.922 316.352C993.922 317.92 993.538 319.376 992.77 320.72C992.034 322.064 990.962 323.136 989.554 323.936C988.146 324.736 986.45 325.136 984.466 325.136ZM984.466 321.056C985.874 321.056 987.026 320.64 987.922 319.808C988.85 318.976 989.314 317.824 989.314 316.352C989.314 314.944 988.85 313.824 987.922 312.992C987.026 312.16 985.874 311.744 984.466 311.744C983.026 311.744 981.842 312.16 980.914 312.992C980.018 313.824 979.57 314.944 979.57 316.352C979.57 317.824 980.018 318.976 980.914 319.808C981.842 320.64 983.026 321.056 984.466 321.056ZM978.034 335.168C978.034 336.448 978.642 337.392 979.858 338C981.106 338.608 982.658 338.912 984.514 338.912C986.498 338.912 988.066 338.576 989.218 337.904C990.37 337.232 990.946 336.288 990.946 335.072C990.946 334.048 990.53 333.232 989.698 332.624C988.866 332.048 987.458 331.76 985.474 331.76H979.858C978.642 332.72 978.034 333.856 978.034 335.168ZM1003.12 332V308.192H1007.54L1007.97 311.744H1008.21C1008.85 310.592 1009.84 309.616 1011.18 308.816C1012.53 308.016 1014.08 307.616 1015.84 307.616C1018.75 307.616 1020.94 308.496 1022.42 310.256C1023.89 312.016 1024.62 314.608 1024.62 318.032V332H1019.54V318.656C1019.54 316.672 1019.12 315.136 1018.29 314.048C1017.46 312.96 1016.14 312.416 1014.35 312.416C1012.59 312.416 1011.12 313.008 1009.94 314.192C1008.78 315.376 1008.21 317.088 1008.21 319.328V332H1003.12ZM1042.84 332.576C1040.54 332.576 1038.51 332.064 1036.75 331.04C1034.99 329.984 1033.61 328.528 1032.62 326.672C1031.63 324.816 1031.13 322.656 1031.13 320.192C1031.13 317.696 1031.61 315.504 1032.57 313.616C1033.56 311.728 1034.94 310.256 1036.7 309.2C1038.49 308.144 1040.56 307.616 1042.89 307.616C1045.2 307.616 1047.18 308.144 1048.84 309.2C1050.51 310.224 1051.79 311.6 1052.68 313.328C1053.61 315.056 1054.08 316.96 1054.08 319.04C1054.08 319.36 1054.08 319.712 1054.08 320.096C1054.08 320.448 1054.06 320.848 1054.03 321.296H1036.12C1036.28 323.504 1037 325.184 1038.28 326.336C1039.56 327.456 1041.07 328.016 1042.8 328.016C1044.3 328.016 1045.48 327.712 1046.35 327.104C1047.24 326.464 1047.9 325.6 1048.32 324.512H1053.45C1052.88 326.784 1051.68 328.704 1049.85 330.272C1048.03 331.808 1045.69 332.576 1042.84 332.576ZM1042.84 312.032C1041.28 312.032 1039.88 312.512 1038.67 313.472C1037.45 314.4 1036.67 315.712 1036.32 317.408H1048.99C1048.86 315.808 1048.24 314.512 1047.12 313.52C1046 312.528 1044.57 312.032 1042.84 312.032ZM1060.63 332V327.584H1066.44V314.192C1066.44 313.136 1065.93 312.608 1064.91 312.608H1061.11V308.192H1066.83C1068.14 308.192 1069.21 308.576 1070.04 309.344C1070.87 310.08 1071.29 311.12 1071.29 312.464V313.04H1071.53C1071.88 311.248 1072.63 309.904 1073.79 309.008C1074.97 308.08 1076.68 307.616 1078.92 307.616H1082.62V312.992H1077.43C1075.55 312.992 1074.09 313.648 1073.07 314.96C1072.04 316.272 1071.53 317.84 1071.53 319.664V327.584H1078.92V332H1060.63Z" fill="white"/>
<path d="M420.864 465.82V460.612H425.4C426.707 460.612 427.64 460.332 428.2 459.772C428.797 459.249 429.096 458.353 429.096 457.084V430.764H422.04V425.724H429.096V421.86C429.096 418.761 429.861 416.54 431.392 415.196C432.923 413.852 435.107 413.18 437.944 413.18H444.72V418.388H438.672C437.365 418.388 436.432 418.649 435.872 419.172C435.312 419.695 435.032 420.609 435.032 421.916V425.724H444.72V430.764H435.032V457.14C435.032 460.239 434.267 462.46 432.736 463.804C431.205 465.148 429.003 465.82 426.128 465.82H420.864ZM454.89 453.5V448.348H461.666V432.724C461.666 431.492 461.069 430.876 459.874 430.876H455.45V425.724H462.114C463.645 425.724 464.895 426.172 465.866 427.068C466.837 427.927 467.322 429.14 467.322 430.708V431.38H467.602C468.013 429.289 468.89 427.721 470.234 426.676C471.615 425.593 473.613 425.052 476.226 425.052H480.538V431.324H474.49C472.287 431.324 470.589 432.089 469.394 433.62C468.199 435.151 467.602 436.98 467.602 439.108V448.348H476.226V453.5H454.89ZM500.956 454.172C498.306 454.172 495.935 453.575 493.844 452.38C491.754 451.185 490.111 449.505 488.916 447.34C487.722 445.137 487.124 442.561 487.124 439.612C487.124 436.663 487.722 434.105 488.916 431.94C490.111 429.737 491.754 428.039 493.844 426.844C495.935 425.649 498.324 425.052 501.012 425.052C503.7 425.052 506.071 425.649 508.124 426.844C510.215 428.039 511.839 429.737 512.996 431.94C514.191 434.105 514.788 436.663 514.788 439.612C514.788 442.561 514.191 445.137 512.996 447.34C511.802 449.505 510.159 451.185 508.068 452.38C506.015 453.575 503.644 454.172 500.956 454.172ZM500.956 448.516C502.375 448.516 503.682 448.199 504.876 447.564C506.071 446.929 507.023 445.959 507.732 444.652C508.479 443.308 508.852 441.628 508.852 439.612C508.852 437.559 508.479 435.879 507.732 434.572C507.023 433.265 506.071 432.295 504.876 431.66C503.719 431.025 502.431 430.708 501.012 430.708C499.594 430.708 498.287 431.025 497.092 431.66C495.898 432.295 494.927 433.265 494.18 434.572C493.471 435.879 493.116 437.559 493.116 439.612C493.116 442.673 493.882 444.932 495.412 446.388C496.98 447.807 498.828 448.516 500.956 448.516ZM519.134 453.5V425.724H524.062L524.566 428.972H524.846C525.332 427.815 526.078 426.881 527.086 426.172C528.094 425.425 529.289 425.052 530.67 425.052C532.014 425.052 533.19 425.388 534.198 426.06C535.206 426.732 535.953 427.703 536.438 428.972H536.662C537.148 427.852 537.913 426.919 538.958 426.172C540.004 425.425 541.292 425.052 542.822 425.052C544.876 425.052 546.425 425.724 547.47 427.068C548.553 428.412 549.094 430.297 549.094 432.724V453.5H543.382V433.9C543.382 432.78 543.14 431.903 542.654 431.268C542.206 430.596 541.478 430.26 540.47 430.26C539.462 430.26 538.622 430.652 537.95 431.436C537.316 432.22 536.998 433.321 536.998 434.74V453.5H531.23V433.9C531.23 432.78 531.006 431.903 530.558 431.268C530.11 430.596 529.382 430.26 528.374 430.26C527.366 430.26 526.526 430.652 525.854 431.436C525.182 432.22 524.846 433.321 524.846 434.74V453.5H519.134Z" fill="white"/>
<rect x="585" y="392" width="277" height="84" rx="42" stroke="white" stroke-width="2"/>
<path d="M611.408 450V416.4H622.784C625.344 416.4 627.456 416.848 629.12 417.744C630.784 418.608 632.016 419.808 632.816 421.344C633.616 422.88 634.016 424.64 634.016 426.624C634.016 428.608 633.616 430.368 632.816 431.904C632.016 433.44 630.784 434.656 629.12 435.552C627.456 436.416 625.344 436.848 622.784 436.848H616.496V450H611.408ZM616.496 432.288H622.544C624.72 432.288 626.304 431.776 627.296 430.752C628.32 429.728 628.832 428.352 628.832 426.624C628.832 424.928 628.32 423.568 627.296 422.544C626.304 421.488 624.72 420.96 622.544 420.96H616.496V432.288ZM649.021 450.576C647.133 450.576 645.549 450.256 644.269 449.616C642.989 448.944 642.029 448.064 641.389 446.976C640.749 445.856 640.429 444.64 640.429 443.328C640.429 440.992 641.277 439.168 642.973 437.856C644.701 436.544 647.133 435.888 650.269 435.888H656.413V435.36C656.413 431.776 654.749 429.984 651.421 429.984C650.045 429.984 648.877 430.288 647.917 430.896C646.989 431.472 646.365 432.416 646.045 433.728H640.957C641.213 431.232 642.285 429.264 644.173 427.824C646.093 426.352 648.509 425.616 651.421 425.616C654.941 425.616 657.501 426.48 659.101 428.208C660.701 429.936 661.501 432.32 661.501 435.36V450H657.181L656.749 446.496H656.413C655.709 447.616 654.829 448.576 653.773 449.376C652.717 450.176 651.133 450.576 649.021 450.576ZM649.981 446.304C652.061 446.304 653.613 445.68 654.637 444.432C655.693 443.152 656.269 441.536 656.365 439.584H650.797C648.973 439.584 647.677 439.888 646.909 440.496C646.173 441.072 645.805 441.888 645.805 442.944C645.805 444 646.173 444.832 646.909 445.44C647.677 446.016 648.701 446.304 649.981 446.304ZM670.267 450V415.44H675.355V436.176L684.475 426.192H690.859L680.923 436.752V437.136L692.155 450H685.963L675.355 437.76V450H670.267ZM708.264 422.544C707.144 422.544 706.2 422.192 705.432 421.488C704.696 420.752 704.328 419.856 704.328 418.8C704.328 417.744 704.696 416.864 705.432 416.16C706.2 415.456 707.144 415.104 708.264 415.104C709.416 415.104 710.36 415.456 711.096 416.16C711.864 416.864 712.248 417.744 712.248 418.8C712.248 419.856 711.864 420.752 711.096 421.488C710.36 422.192 709.416 422.544 708.264 422.544ZM698.712 450V445.584H706.2V432.192C706.2 431.136 705.688 430.608 704.664 430.608H699.384V426.192H705.576C707.56 426.192 709 426.656 709.896 427.584C710.824 428.48 711.288 429.92 711.288 431.904V445.584H718.776V450H698.712ZM737.717 450.576C734.581 450.576 732.085 449.84 730.229 448.368C728.373 446.896 727.317 444.944 727.061 442.512H732.293C732.485 443.632 733.045 444.544 733.973 445.248C734.933 445.952 736.197 446.304 737.765 446.304C739.269 446.304 740.421 446 741.221 445.392C742.053 444.752 742.469 444.016 742.469 443.184C742.469 441.968 741.973 441.136 740.981 440.688C740.021 440.24 738.597 439.904 736.709 439.68C735.077 439.488 733.589 439.12 732.245 438.576C730.933 438 729.893 437.232 729.125 436.272C728.357 435.28 727.973 434.048 727.973 432.576C727.973 430.496 728.789 428.816 730.421 427.536C732.053 426.256 734.325 425.616 737.237 425.616C740.149 425.616 742.405 426.272 744.005 427.584C745.605 428.896 746.533 430.688 746.789 432.96H741.893C741.765 432 741.269 431.248 740.405 430.704C739.541 430.128 738.469 429.84 737.189 429.84C735.877 429.84 734.837 430.096 734.069 430.608C733.301 431.088 732.917 431.728 732.917 432.528C732.917 434.256 734.773 435.312 738.485 435.696C740.245 435.888 741.813 436.224 743.189 436.704C744.565 437.152 745.653 437.872 746.453 438.864C747.253 439.824 747.653 441.184 747.653 442.944C747.685 444.384 747.269 445.68 746.405 446.832C745.573 447.984 744.405 448.896 742.901 449.568C741.429 450.24 739.701 450.576 737.717 450.576ZM768.898 450C766.562 450 764.706 449.44 763.33 448.32C761.954 447.168 761.266 445.136 761.266 442.224V430.512H755.266V426.192H758.818C760.45 426.192 761.41 425.392 761.698 423.792L762.418 419.952H766.354V426.192H775.762V430.512H766.354V442.128C766.354 443.376 766.626 444.256 767.17 444.768C767.746 445.248 768.722 445.488 770.098 445.488H775.666V450H768.898ZM792.928 450.576C791.04 450.576 789.456 450.256 788.176 449.616C786.896 448.944 785.936 448.064 785.296 446.976C784.656 445.856 784.336 444.64 784.336 443.328C784.336 440.992 785.184 439.168 786.88 437.856C788.608 436.544 791.04 435.888 794.176 435.888H800.32V435.36C800.32 431.776 798.656 429.984 795.328 429.984C793.952 429.984 792.784 430.288 791.824 430.896C790.896 431.472 790.272 432.416 789.952 433.728H784.864C785.12 431.232 786.192 429.264 788.08 427.824C790 426.352 792.416 425.616 795.328 425.616C798.848 425.616 801.408 426.48 803.008 428.208C804.608 429.936 805.408 432.32 805.408 435.36V450H801.088L800.656 446.496H800.32C799.616 447.616 798.736 448.576 797.68 449.376C796.624 450.176 795.04 450.576 792.928 450.576ZM793.888 446.304C795.968 446.304 797.52 445.68 798.544 444.432C799.6 443.152 800.176 441.536 800.272 439.584H794.704C792.88 439.584 791.584 439.888 790.816 440.496C790.08 441.072 789.712 441.888 789.712 442.944C789.712 444 790.08 444.832 790.816 445.44C791.584 446.016 792.608 446.304 793.888 446.304ZM813.213 450V426.192H817.629L818.061 429.744H818.301C818.941 428.592 819.933 427.616 821.277 426.816C822.621 426.016 824.173 425.616 825.933 425.616C828.845 425.616 831.037 426.496 832.509 428.256C833.981 430.016 834.717 432.608 834.717 436.032V450H829.629V436.656C829.629 434.672 829.213 433.136 828.381 432.048C827.549 430.96 826.237 430.416 824.445 430.416C822.685 430.416 821.213 431.008 820.029 432.192C818.877 433.376 818.301 435.088 818.301 437.328V450H813.213Z" fill="black"/>
<defs>
<linearGradient id="paint0_linear_3637_64" x1="0" y1="0" x2="1168.99" y2="709.822" gradientUnits="userSpaceOnUse">
<stop stop-color="#00DF96"/>
<stop offset="1" stop-color="#4F82F8"/>
</linearGradient>
</defs>
</svg>
